<?xml version="1.0" encoding="UTF-8" standalone="no"?>
<svg width="738px" height="377px" viewBox="0 0 738 377" version="1.1" xmlns="http://www.w3.org/2000/svg" xmlns:xlink="http://www.w3.org/1999/xlink" xmlns:sketch="http://www.bohemiancoding.com/sketch/ns">
    <title>icons</title>
    <description>Created with Sketch (http://www.bohemiancoding.com/sketch)</description>
    <defs></defs>
    <g id="Page-1" stroke="none" stroke-width="1" fill="none" fill-rule="evenodd" sketch:type="MSPage">
        <rect id="Rectangle-92" fill="#132940" sketch:type="MSShapeGroup" x="41" y="179" width="275" height="146"></rect>
        <rect id="Rectangle-192" stroke="#F5F5F2" fill="#D8D8D8" sketch:type="MSShapeGroup" x="43" y="32" width="60" height="60"></rect>
        <rect id="Rectangle-192" stroke="#F5F5F2" fill="#D8D8D8" sketch:type="MSShapeGroup" x="103" y="32" width="60" height="60"></rect>
        <rect id="Rectangle-192" stroke="#F5F5F2" fill="#D8D8D8" sketch:type="MSShapeGroup" x="223" y="32" width="60" height="60"></rect>
        <rect id="Rectangle-192" stroke="#F5F5F2" fill="#D8D8D8" sketch:type="MSShapeGroup" x="223" y="92" width="60" height="60"></rect>
        <rect id="Rectangle-192" stroke="#F5F5F2" fill="#D8D8D8" sketch:type="MSShapeGroup" x="43" y="92" width="60" height="60"></rect>
        <rect id="Rectangle-192" stroke="#F5F5F2" fill="#D8D8D8" sketch:type="MSShapeGroup" x="103" y="92" width="60" height="60"></rect>
        <rect id="Rectangle-192" stroke="#F5F5F2" fill="#D8D8D8" sketch:type="MSShapeGroup" x="163" y="92" width="60" height="60"></rect>
        <g id="Path-213-copy-+-Path-213" sketch:type="MSLayerGroup" transform="translate(246.000000, 115.000000)" stroke="#5E6A77" stroke-width="4" stroke-linecap="round" stroke-linejoin="round">
            <path d="M11,2.27373675e-13 L17,8 L11,17" id="Path-213-copy" sketch:type="MSShapeGroup"></path>
            <path d="M0,2.27373675e-13 L6,8 L0,17" id="Path-213" sketch:type="MSShapeGroup"></path>
        </g>
        <path d="M184,132 L200.8,132 L200.8,121.5 L192.4,111 L184,121.5 L184,132 Z" id="Path-83" stroke="#5E6A77" stroke-width="3" stroke-linecap="round" stroke-linejoin="round" sketch:type="MSShapeGroup"></path>
        <path d="M64.5263158,115.071429 L83.4736842,115.071429 M64.5263158,121.5 L83.4736842,121.5 M64.5263158,127.928571 L83.4736842,127.928571" id="Line" stroke="#5E6A77" stroke-width="2" stroke-linecap="square" sketch:type="MSShapeGroup"></path>
        <g id="Oval-3-+-Line-copy" sketch:type="MSLayerGroup" transform="translate(123.000000, 112.000000)" stroke="#5E6A77" stroke-width="2">
            <circle id="Oval-3" sketch:type="MSShapeGroup" cx="9" cy="9" r="9"></circle>
            <path d="M15.5,14.5 L19.6231055,18.6231055" id="Line" stroke-linecap="round" sketch:type="MSShapeGroup"></path>
        </g>
        <path d="M249.476324,71.9967436 C250.442372,73.1599648 252.211875,73.2060137 253.237117,72.0946131 L255.096413,70.0790668 L259.186865,65.6448652 L263.277316,61.2106641 C264.764753,59.5982275 264.764753,59.5982275 265.136612,59.1951187 C266.072793,58.1802633 266.009015,56.5986362 264.99416,55.6624553 C263.979305,54.7262743 262.397678,54.7900522 261.461497,55.8049072 C261.089638,56.2080161 261.089638,56.2080161 259.602201,57.820453 L255.51175,62.2546543 C253.280595,64.6733097 251.499582,66.6069346 251.499582,66.6069346 L248.423301,62.9027767 C247.541172,61.8406027 245.965003,61.6946475 244.902829,62.5767766 C243.840655,63.4589056 243.6947,65.0350747 244.576829,66.0972487 L249.476324,71.9967436 Z" id="Path-155-copy" fill="#5E6A77" sketch:type="MSShapeGroup"></path>
        <path d="M59,72.7989899 L78.7989899,72.7989899 L78.7989899,53" id="Path-213" stroke="#5E6A77" stroke-width="5" stroke-linecap="round" stroke-linejoin="round" sketch:type="MSShapeGroup" transform="translate(68.899495, 62.899495) rotate(-45.000000) translate(-68.899495, -62.899495) "></path>
        <path d="M124,76.7989899 L143.79899,76.7989899 L143.79899,57" id="Path-213-copy" stroke="#5E6A77" stroke-width="5" stroke-linecap="round" stroke-linejoin="round" sketch:type="MSShapeGroup" transform="translate(133.899495, 66.899495) rotate(-315.000000) translate(-133.899495, -66.899495) "></path>
        <path d="M133.999996,48 L133.749996,62" id="Path-37" stroke="#5E6A77" stroke-width="5" stroke-linecap="round" stroke-linejoin="round" sketch:type="MSShapeGroup"></path>
        <rect id="Rectangle-192" stroke="#F5F5F2" fill="#D8D8D8" sketch:type="MSShapeGroup" x="163" y="32" width="60" height="60"></rect>
        <path d="M184,69.7989899 L203.79899,69.7989899 L203.79899,50" id="Path-213-copy" stroke="#5E6A77" stroke-width="5" stroke-linecap="round" stroke-linejoin="round" sketch:type="MSShapeGroup" transform="translate(193.899495, 59.899495) rotate(-315.000000) translate(-193.899495, -59.899495) "></path>
        <g id="Oval-20-+-Shape" sketch:type="MSLayerGroup" transform="translate(75.000000, 195.000000)">
            <ellipse id="Oval-20" stroke="#979797" opacity="0.363707386" sketch:type="MSShapeGroup" cx="21" cy="19.5" rx="21" ry="19.5"></ellipse>
            <path d="M10,21.8213006 C10,21.8213006 12.8875069,26.0961212 18.7625308,25.998348 C22.5500176,25.8885154 27.9249912,24.2518413 29.3625459,18.8533856 C29.3625459,18.8533856 30.9063094,19.109824 32,17.9373565 C30.5062138,18.1389056 29.5125333,17.680864 29.5125333,17.680864 C29.5125333,17.680864 31.4687899,17.6258666 31.8999899,16.4961207 C30.7438138,16.9847165 29.3125132,16.5693966 29.3125132,16.5693966 C29.3125132,16.5693966 28.6374591,12.5266792 24.5249258,12.3801275 C24.5249258,12.3801275 26.722878,11.9424733 26.3791245,11.4478208 C26.104166,11.0874984 24.5750138,11.7572558 24.5750138,11.7572558 C24.5750138,11.7572558 25.4271195,11.3908225 25.4083572,11 C24.5458465,11.0976651 23.7541786,11.7205908 23.7541786,11.7205908 C23.7541786,11.7205908 23.9957635,11.34199 23.9999145,11.1832166 C21.9458063,12.2987399 20.5499824,16.453399 20.5499824,16.453399 C20.5499824,16.453399 20.029122,15.8895266 19.1624604,15.2788224 C17.0708277,14.0737999 13.2124981,12.6488416 13.2124981,12.6488416 C13.2124981,12.6488416 12.9541434,14.2040741 15.0124579,15.3439866 C14.1708126,15.4091507 13.7458113,15.5149816 13.7458113,15.5149816 C13.7458113,15.5149816 13.7458113,17.1678791 16.1999597,17.7053073 C15.0624906,17.7459741 14.6874667,18.2996799 14.6874667,18.2996799 C14.6874667,18.2996799 15.3291472,19.7734706 17.3457862,19.6513623 C15.7041157,20.4818398 16.7707975,21.6136406 18.1124377,21.4914782 C13.7957887,25.2695914 10,21.8213006 10,21.8213006 L10,21.8213006 Z" id="Shape" fill="#FFFFFF" sketch:type="MSShapeGroup"></path>
        </g>
        <g id="Oval-20-+-Group" sketch:type="MSLayerGroup" transform="translate(131.000000, 195.000000)">
            <ellipse id="Oval-20" stroke="#979797" opacity="0.363707386" sketch:type="MSShapeGroup" cx="21" cy="19.5" rx="21" ry="19.5"></ellipse>
            <g id="Group" transform="translate(13.000000, 10.000000)" fill="#FFFFFF" sketch:type="MSShapeGroup">
                <path d="M9.45583499,10.2761779 L8.59106206,9.62071158 C8.32770038,9.40752078 7.96750498,9.12609197 7.96750498,8.6109162 C7.96750498,8.09362123 8.32770038,7.7647225 8.64034739,7.46019449 C9.64776551,6.68626528 10.6543152,5.86253503 10.6543152,4.12670418 C10.6543152,2.34170807 9.50360051,1.40269373 8.95212593,0.957239398 L10.4391532,0.957239398 L12,0 L7.27143116,0 C5.97394608,0 4.1041433,0.299653865 2.73522707,1.40269373 C1.70349195,2.27156279 1.20021712,3.46954249 1.20021712,4.54799972 C1.20021712,6.3787704 2.64034739,8.23454755 5.18342681,8.23454755 C5.42355708,8.23454755 5.68626741,8.21144835 5.95071467,8.18750147 C5.83195223,8.46956604 5.7118871,8.7043726 5.7118871,9.10299277 C5.7118871,9.83008783 6.09466257,10.275966 6.43206079,10.6983211 C5.35147458,10.7707975 3.33425005,10.887565 1.84722272,11.7797452 C0.430975213,12.6017801 0,13.7982764 0,14.6427747 C0,16.3809367 1.67852361,18 5.15910982,18 C9.28648453,18 11.4715397,15.7708211 11.4715397,13.5641056 C11.4717568,11.9427112 10.5121042,11.1446231 9.45583499,10.2761779 L9.45583499,10.2761779 Z M5.86739988,7 C3.8939614,7 3,4.66332995 3,3.25342119 C3,2.7045109 3.11350903,2.13773441 3.50383897,1.69507096 C3.87175763,1.27350482 4.51255447,1 5.11081137,1 C7.01328076,1 8,3.35757729 8,4.87392296 C8,5.25329448 7.95434737,5.92555753 7.42685204,6.41155601 C7.05789583,6.74873289 6.44054783,7 5.86739988,7 L5.86739988,7 Z M6.35838118,18 C3.70866825,18 2,16.7290972 2,14.9619201 C2,13.1951923 3.58431592,12.5975961 4.12944966,12.3996705 C5.16907996,12.0489759 6.5069318,12 6.73009382,12 C6.9776782,12 7.10158241,12 7.29875368,12.0249373 C9.18241143,13.3690793 10,14.039016 10,15.3114914 C10,16.8524357 8.7365355,18 6.35838118,18 L6.35838118,18 Z" id="Shape"></path>
                <path d="M15.5876266,7.39468089 L15.5876266,5 L14.4002171,5 L14.4002171,7.39468089 L12,7.39468089 L12,8.59061588 L14.4002171,8.59061588 L14.4002171,11 L15.5876266,11 L15.5876266,8.59061588 L18,8.59061588 L18,7.39468089 L15.5876266,7.39468089 Z" id="Shape"></path>
            </g>
        </g>
        <g id="Oval-20-+-path3002" sketch:type="MSLayerGroup" transform="translate(187.000000, 195.000000)">
            <ellipse id="Oval-20" stroke="#979797" opacity="0.363707386" sketch:type="MSShapeGroup" cx="21" cy="19.5" rx="21" ry="19.5"></ellipse>
            <path d="M17.9133754,27.9248463 L17.9133754,19.2818325 L15,19.2818325 L15,15.9217395 L17.9133754,15.9217395 L17.9133754,13.3579691 C17.9133754,10.6704258 19.5795399,9 22.2039434,9 C23.7837904,9 24.847209,9.12386352 24.847209,9.12386352 L24.847209,12.153774 L23.0672753,12.153774 C21.9393332,12.153774 21.409426,12.5504937 21.409426,13.7464192 L21.409426,15.9217395 L24.730674,15.9217395 L24.3033789,19.2818325 L21.409426,19.2818325 L21.409426,27.9248463 L17.9133754,27.9248463 Z" id="path3002" fill="#FFFFFF" sketch:type="MSShapeGroup"></path>
        </g>
        <g id="Group" sketch:type="MSLayerGroup" transform="translate(244.000000, 195.000000)">
            <rect id="Rectangle-60" fill="#FFFFFF" sketch:type="MSShapeGroup" x="10" y="18" width="23" height="12" rx="1"></rect>
            <ellipse id="Oval-20" stroke="#979797" opacity="0.363707386" sketch:type="MSShapeGroup" cx="21" cy="19.5" rx="21" ry="19.5"></ellipse>
            <g transform="translate(13.000000, 7.000000)" id="Shape" fill="#FFFFFF" sketch:type="MSShapeGroup">
                <path d="M0,0 L1.73765829,0 L1.96133752,0.955768113 L2.15061329,1.66152505 L2.3054856,2.35260398 L2.46035792,3.07303891 L2.58082678,3.67592856 L2.64963369,3.67592856 L2.77010255,3.07303891 L2.90771637,2.35260398 L3.07973364,1.66152505 L3.25175091,0.955768113 L3.49257509,0 L5.17857143,0 L3.38936472,5.73460868 L3.38936472,9.80769231 L1.78943379,9.80769231 L1.78943379,5.73460868 L0,0 L0,0 Z"></path>
                <path d="M7.41071429,2.30769231 C8.77399142,2.30769231 9.46428571,2.99885213 9.46428571,4.36649205 L9.46428571,7.74889257 C9.46428571,9.11653249 8.77399142,9.80769231 7.41071429,9.80769231 C6.04743715,9.80769231 5.35714286,9.11653249 5.35714286,7.74889257 L5.35714286,4.36649205 C5.35714286,2.99897345 6.04732326,2.30769231 7.41071429,2.30769231 L7.41071429,2.30769231 Z M7.32142857,3.46153846 C6.96988333,3.46153846 6.78571429,3.69885424 6.78571429,4.14398961 L6.78571429,7.971395 C6.78571429,8.4015987 6.98656571,8.65384615 7.32142857,8.65384615 C7.65629143,8.65384615 7.85714286,8.4015987 7.85714286,7.971395 L7.85714286,4.14398961 C7.85703238,3.69885424 7.65618095,3.46153846 7.32142857,3.46153846 L7.32142857,3.46153846 Z"></path>
                <path d="M13.6077131,9.89577366 L13.4858507,9.25592948 C12.8593101,9.80652448 12.4937229,10 12.0586476,10 C11.6931751,10 11.3103594,9.82137888 11.1364671,9.58334015 C10.944887,9.33032426 10.8928571,9.06245396 10.8928571,8.30352905 L10.8928571,2.5 L12.4068916,2.5 L12.4068916,8.25896584 C12.4068916,8.63093971 12.528754,8.80956083 12.8070506,8.80956083 C12.9986307,8.80956083 13.1726379,8.73516606 13.4858507,8.51198173 L13.4858507,2.5 L15,2.5 L15,9.89577366 L13.6077131,9.89577366 L13.6077131,9.89577366 Z"></path>
            </g>
            <g transform="translate(12.000000, 19.000000)" id="Shape" fill="#132940" sketch:type="MSShapeGroup">
                <path d="M1.37534643,1.14902996 L0,1.14902996 L0,0 L4.28431373,0 L4.28431373,1.14902996 L2.84561161,1.14902996 L2.84561161,8.80851064 L1.37534643,8.80851064 L1.37534643,1.14902996 L1.37534643,1.14902996 Z"></path>
                <path d="M7.24244439,8.90672384 L7.12644399,8.33512075 C6.52983609,8.82708313 6.18171455,9 5.76741019,9 C5.41928865,9 5.05468156,8.84059791 4.88898389,8.62761935 C4.70668035,8.40160867 4.65686275,8.16232454 4.65686275,7.4839305 L4.65686275,2.29787234 L6.09892588,2.29787234 L6.09892588,7.44386881 C6.09892588,7.77642911 6.21492628,7.93595186 6.48013883,7.93595186 C6.66244237,7.93595186 6.82826037,7.86934327 7.12656432,7.67012083 L7.12656432,2.29787234 L8.56862745,2.29787234 L8.56862745,8.9068445 L7.24244439,8.9068445 L7.24244439,8.90672384 L7.24244439,8.90672384 Z"></path>
                <path d="M9.87254902,0 L11.3144918,0 L11.3144918,2.8360762 C11.8780083,2.33940115 12.2592213,2.14336393 12.6902518,2.14336393 C13.0218878,2.14336393 13.3863746,2.30014627 13.5520723,2.50922891 C13.7344961,2.74440241 13.7843137,2.9799317 13.7843137,3.67252536 L13.7843137,7.2794678 C13.7843137,7.95901604 13.7344961,8.19442673 13.5520723,8.42948164 C13.3863746,8.6518469 13.0218878,8.80851064 12.6736459,8.80851064 C12.2426154,8.80851064 11.8780083,8.61247342 11.3144918,8.10275295 L11.3144918,8.71719264 L9.87254902,8.71719264 L9.87254902,0 L9.87254902,0 Z M11.9486155,7.85106383 C12.1888747,7.85106383 12.2941176,7.6935431 12.2941176,7.36515647 L12.2941176,3.7409882 C12.2941176,3.39973301 12.1888747,3.25531915 11.9486155,3.25531915 C11.7832805,3.25531915 11.6329958,3.32097264 11.3627451,3.51781398 L11.3627451,7.58833069 C11.6332139,7.78529118 11.7833896,7.85106383 11.9486155,7.85106383 L11.9486155,7.85106383 Z"></path>
                <path d="M19.1698765,6.42989392 L19.1698765,6.66637226 C19.1862745,6.83726155 19.1862745,6.95556034 19.1862745,7.02126865 C19.1862745,8.17766323 18.4824658,8.80851064 17.1893971,8.80851064 C15.9619205,8.80851064 15.2745098,8.15142761 15.2745098,6.96867815 L15.2745098,3.9329784 C15.2745098,2.69775771 15.9292432,2.10638298 17.2548704,2.10638298 C18.4333905,2.10638298 19.1698765,2.72399333 19.1698765,3.73585349 L19.1698765,5.65451209 L16.6984064,5.65451209 L16.6984064,7.08697695 C16.6984064,7.56029139 16.8456323,7.75729704 17.2220743,7.75729704 C17.4022151,7.75729704 17.5658391,7.67835168 17.6474728,7.56029139 C17.7293442,7.44199259 17.745861,7.29745817 17.745861,6.82438224 L17.745861,6.42989392 L19.1698765,6.42989392 L19.1698765,6.42989392 Z M17.8823529,4.78723404 L17.8823529,3.71487045 C17.8823529,3.42132293 17.6728734,3.25531915 17.3234026,3.25531915 C16.9741855,3.25531915 16.7647059,3.42132293 16.7647059,3.71487045 L16.7647059,4.78723404 L17.8823529,4.78723404 L17.8823529,4.78723404 Z"></path>
            </g>
        </g>
        <ellipse id="Oval-20" stroke="#979797" opacity="0.363707386" sketch:type="MSShapeGroup" cx="96" cy="272.5" rx="21" ry="19.5"></ellipse>
        <ellipse id="Oval-20" stroke="#979797" opacity="0.363707386" sketch:type="MSShapeGroup" cx="152" cy="272.5" rx="21" ry="19.5"></ellipse>
        <ellipse id="Oval-20" stroke="#979797" opacity="0.363707386" sketch:type="MSShapeGroup" cx="208" cy="272.5" rx="21" ry="19.5"></ellipse>
        <g id="Layer_1" sketch:type="MSLayerGroup" transform="translate(162.000000, 89.000000)"></g>
        <g id="Group" sketch:type="MSLayerGroup" transform="translate(84.000000, 260.000000)">
            <g sketch:type="MSShapeGroup">
                <g transform="translate(2.000000, 2.000000)" id="Shape" fill="#FFFFFF">
                    <path d="M0,11.0480447 C0,14.9851789 2.44890104,18.3876336 6,20 L0.921705662,7 C0.331003748,8.23704976 0,9.60601869 0,11.0480447 L0,11.0480447 Z"></path>
                    <path d="M17.9977833,8.82259338 C17.9977833,7.6742418 17.5276515,6.87897076 17.1244222,6.25997478 C16.5875893,5.49458386 16.0844091,4.84641497 16.0844091,4.08102406 C16.0844091,3.22687679 16.822756,2.43178255 17.8627691,2.43178255 C17.9097218,2.43178255 17.9542564,2.43690991 18,2.43920838 C16.1158453,0.924692653 13.605587,0 10.8484742,0 C7.14867945,0 3.89362586,1.66550761 2,4.18816818 C2.24846661,4.19470998 2.48262573,4.19930692 2.68151992,4.19930692 C3.78924168,4.19930692 5.50392322,4.08137767 5.50392322,4.08137767 C6.07481203,4.05185115 6.14211766,4.78753875 5.5718334,4.84676859 C5.5718334,4.84676859 4.9981234,4.90599842 4.35972745,4.93534813 L8.21629995,15 L10.533911,8.90144863 L8.88391541,4.93499452 C8.31363115,4.90564481 7.77337246,4.84641497 7.77337246,4.84641497 C7.20268517,4.81706526 7.26958778,4.05149754 7.84027507,4.08102406 C7.84027507,4.08102406 9.58921397,4.19895331 10.6298316,4.19895331 C11.7373519,4.19895331 13.4522349,4.08102406 13.4522349,4.08102406 C14.0235267,4.05149754 14.0906309,4.78718514 13.5201451,4.84641497 C13.5201451,4.84641497 12.945226,4.90564481 12.3080391,4.93499452 L16.1351906,14.9234432 L17.1915263,11.8263417 C17.6493659,10.5411426 17.9977833,9.61804123 17.9977833,8.82259338 L17.9977833,8.82259338 Z"></path>
                    <path d="M10.9292216,11 L8,19.5982277 C8.87460524,19.8579441 9.79955415,20 10.7579417,20 C11.8948542,20 12.9851384,19.8014595 14,19.4409716 C13.9738064,19.398749 13.9500279,19.3538991 13.930522,19.3051084 L10.9292216,11 L10.9292216,11 Z"></path>
                    <path d="M20.5218688,6 C20.5737573,6.30806472 20.6031454,6.63876502 20.6031454,6.99449328 C20.6031454,7.9759205 20.374469,9.07917498 19.6856847,10.4586572 L16,19 C19.5871886,17.3233108 21.9999999,14.2082502 21.9999999,10.6402939 C22.0002295,8.95881995 21.4643553,7.37764188 20.5218688,6 L20.5218688,6 Z"></path>
                </g>
                <circle id="Oval-40" stroke="#FFFFFF" cx="12.5" cy="12.5" r="12.5"></circle>
            </g>
        </g>
        <g id="Pinterest_Logo" sketch:type="MSLayerGroup" transform="translate(144.000000, 264.000000)" fill="#FFFFFF">
            <path d="M8.03008017,0 C2.6916686,0 0,3.82741322 0,7.01912893 C0,8.95167934 0.731663636,10.6709579 2.3009405,11.3116471 C2.55826446,11.4168479 2.78875785,11.3152661 2.8633843,11.0303628 C2.91529835,10.8331893 3.03809504,10.3357628 3.09287934,10.1286058 C3.16812975,9.84682231 3.1389281,9.74798595 2.9312719,9.50239256 C2.47877107,8.96865124 2.18962479,8.27767025 2.18962479,7.2989157 C2.18962479,4.45936694 4.31410744,1.91732562 7.7217157,1.91732562 C10.739095,1.91732562 12.3968504,3.76102314 12.3968504,6.22332149 C12.3968504,9.46308264 10.9630992,12.1974306 8.83462314,12.1974306 C7.65919421,12.1974306 6.77927603,11.2252901 7.06130909,10.033014 C7.399,8.60962066 8.05316694,7.07341405 8.05316694,6.04599008 C8.05316694,5.12626281 7.5594843,4.35915785 6.53780083,4.35915785 C5.33616529,4.35915785 4.37088843,5.60222479 4.37088843,7.26746777 C4.37088843,8.32808678 4.72929504,9.04539917 4.72929504,9.04539917 C4.72929504,9.04539917 3.49958099,14.2556479 3.28406281,15.1681372 C2.85477355,16.9853785 3.21954463,19.2130653 3.2503686,19.4380678 C3.26846364,19.5713471 3.43980496,19.6030446 3.51742645,19.5023364 C3.62824298,19.3577008 5.05937355,17.590876 5.54594298,15.825424 C5.68359008,15.3255017 6.3362595,12.7369124 6.3362595,12.7369124 C6.72661322,13.4815545 7.86759917,14.1374686 9.08096529,14.1374686 C12.6929851,14.1374686 15.1435529,10.8445455 15.1435529,6.43684298 C15.1435529,3.10398595 12.3206017,0 8.03008017,0 L8.03008017,0 Z" id="Shape" sketch:type="MSShapeGroup"></path>
        </g>
        <g id="Flickr" sketch:type="MSLayerGroup" transform="translate(198.000000, 267.000000)" fill="#FFFFFF">
            <g id="layer1" sketch:type="MSShapeGroup">
                <path d="M9,5 C9,7.7614788 6.98534044,10 4.5,10 C2.01478071,10 0,7.76135491 0,5 C0,2.2385212 2.01465956,0 4.5,0 C6.98521929,0 9,2.23864509 9,5 L9,5 Z" id="path4776" opacity="0.600852"></path>
                <path d="M21,5 C21,7.76148263 18.9852803,10 16.5,10 C14.0147197,10 12,7.76135707 12,5 C12,2.23851737 14.0147197,0 16.5,0 C18.9852803,0 21,2.23864293 21,5 L21,5 Z" id="path4778"></path>
            </g>
        </g>
        <g id="Rectangle-168-copy-+-Path-138-+-Path-155-copy-+-Path-37" sketch:type="MSLayerGroup" transform="translate(382.000000, 50.000000)" stroke="#5ED1C4">
            <path d="M35.1738281,-0.0950234576 L0,-0.0950234576 L0,74.8621194 L53,74.8621194 L53,15.5644531 L35,15.9049765 L35.1738281,-0.0950234576 Z" id="Rectangle-168-copy" stroke-width="2" fill="#DFF6F3" sketch:type="MSShapeGroup"></path>
            <path d="M51.4772679,14.7151972 C52.3182496,15.4247742 52.1090746,16 51.0025781,16 L34,16 L34,1.96673159 C34,0.863293649 34.6874448,0.548810925 35.5227321,1.25358322 L51.4772679,14.7151972 Z" id="Path-138" stroke-width="2" fill="#FFFFFF" sketch:type="MSShapeGroup"></path>
            <g id="Path-155-copy-+-Path-37" transform="translate(16.000000, 30.000000)" stroke-width="4" sketch:type="MSShapeGroup" stroke-linecap="round" stroke-linejoin="round">
                <path d="M3,6 L3,21 C3,21 17.9999995,20.9999993 18,21" id="Path-155-copy" transform="translate(10.500000, 13.500000) rotate(-45.000000) translate(-10.500000, -13.500000) "></path>
                <path d="M10.5,0 L10.5,14" id="Path-37"></path>
            </g>
        </g>
        <g id="Triangle-1-copy-+-!-copy" sketch:type="MSLayerGroup" transform="translate(518.000000, 72.000000)">
            <polygon id="Triangle-1-copy" opacity="0.185085227" fill="#000000" sketch:type="MSShapeGroup" points="10.7270065 -1.68978193 23.093462 24 -1.63944902 24 "></polygon>
            <text id="!-copy" sketch:type="MSTextLayer" font-family="Arial Rounded MT Bold" font-size="15.6938336" font-weight="normal" line-spacing="19" fill="#F5F5F2">
                <tspan x="8.25" y="19.4615385">!</tspan>
            </text>
        </g>
        <g id="Triangle-1-copy-2-+-!-copy-2" sketch:type="MSLayerGroup" transform="translate(485.000000, 72.000000)">
            <polygon id="Triangle-1-copy-2" fill="#D796A1" sketch:type="MSShapeGroup" points="10.7270065 -1.68978193 23.093462 24 -1.63944902 24 "></polygon>
            <text id="!-copy-2" sketch:type="MSTextLayer" font-family="Arial Rounded MT Bold" font-size="15.6938336" font-weight="normal" line-spacing="19" fill="#F5F5F2">
                <tspan x="8.25" y="19.4615385">!</tspan>
            </text>
        </g>
        <rect id="Rectangle-1" fill="#25374A" sketch:type="MSShapeGroup" x="371" y="179" width="320" height="73"></rect>
        <g id="Oval-3-+-Line-copy-+-Rectangle-150-copy" sketch:type="MSLayerGroup" transform="translate(640.000000, 198.000000)" stroke="#FFFFFF">
            <g id="Oval-3-+-Line-copy" transform="translate(10.000000, 10.000000)" stroke-width="2" sketch:type="MSShapeGroup">
                <circle id="Oval-3" cx="7" cy="7" r="7"></circle>
                <path d="M12.4,11.4 L15.6984844,14.6984844" id="Line" stroke-linecap="square"></path>
            </g>
            <rect id="Rectangle-150-copy" opacity="0.226846591" sketch:type="MSShapeGroup" x="0" y="0" width="36" height="36"></rect>
        </g>
        <g id="Rectangle-150-+-Line" sketch:type="MSLayerGroup" transform="translate(386.000000, 197.000000)" stroke="#FFFFFF">
            <rect id="Rectangle-150" opacity="0.226846591" sketch:type="MSShapeGroup" x="0" y="0" width="36" height="36"></rect>
            <path d="M8.52631579,12.0714286 L27.4736842,12.0714286 M8.52631579,18.5 L27.4736842,18.5 M8.52631579,24.9285714 L27.4736842,24.9285714" id="Line" stroke-width="2" stroke-linecap="square" opacity="0.718181818" sketch:type="MSShapeGroup"></path>
        </g>
    </g>
</svg>